<svg width="48" height="48" viewBox="0 0 48 48" fill="none" xmlns="http://www.w3.org/2000/svg">
<path d="M37.3833 39.6083C37.5686 39.7936 37.866 39.8049 38.0605 39.6291C38.3259 39.3892 38.5867 39.1414 38.8425 38.8856C47.0518 30.6763 47.0518 17.3663 38.8425 9.15699C30.6332 0.94767 17.3232 0.94767 9.11389 9.15699C8.85808 9.4128 8.61025 9.67357 8.37038 9.93897C8.19463 10.1334 8.20586 10.4309 8.3912 10.6162L37.3833 39.6083Z" fill="white"/>
<path d="M34.6752 42.1233C34.9509 41.9602 34.9927 41.5818 34.7662 41.3553L6.64424 13.2333C6.41771 13.0067 6.03934 13.0486 5.87616 13.3243C5.48882 13.9787 5.14003 14.6496 4.82977 15.3337C4.74499 15.5207 4.78719 15.7401 4.93235 15.8852L32.1143 43.0671C32.2594 43.2123 32.4788 43.2545 32.6658 43.1697C33.3499 42.8595 34.0208 42.5107 34.6752 42.1233Z" fill="white"/>
<path d="M28.2357 44.6094C28.6164 44.5311 28.7471 44.0637 28.4722 43.7888L4.21072 19.5273C3.93591 19.2525 3.4685 19.3832 3.39015 19.7639C3.2071 20.6532 3.08205 21.5521 3.01501 22.4545C3.00437 22.5977 3.05768 22.7381 3.15924 22.8397L25.1599 44.8403C25.2615 44.9419 25.4018 44.9952 25.5451 44.9846C26.4475 44.9175 27.3464 44.7925 28.2357 44.6094Z" fill="white"/>
<path d="M19.2494 44.5068C19.7205 44.615 20.0113 44.0555 19.6695 43.7137L4.28603 28.3302C3.94421 27.9884 3.38465 28.2792 3.49293 28.7503C4.34665 32.4647 6.22034 35.992 9.11399 38.8857C12.0076 41.7793 15.535 43.653 19.2494 44.5068Z" fill="white"/>
</svg>
